<svg width="21" height="17" viewBox="0 0 21 17" fill="none" xmlns="http://www.w3.org/2000/svg">
<path d="M17.68 4.98322C17.7009 5.11403 17.7205 5.24499 17.7389 5.37608C17.7564 5.501 17.8493 5.60139 17.9705 5.6363C18.3283 5.73935 18.6625 5.89794 18.9634 6.10213C19.1139 6.20432 19.3347 6.09115 19.3156 5.91022C19.2744 5.52149 19.223 5.13354 19.1613 4.74679L19.0972 4.34535C18.8913 3.05533 17.7786 2.10612 16.4722 2.10612L8.15777 2.10612C7.95226 1.04846 7.02099 0.25 5.90323 0.25H3.61167C2.25538 0.25 1.11298 1.26343 0.951274 2.61004L0.678788 4.87915C0.389128 7.29129 0.463885 9.73327 0.900549 12.1232C1.11607 13.3027 2.10258 14.1869 3.2986 14.2725L4.81261 14.3808C6.99334 14.5368 9.17934 14.5943 11.364 14.5533C11.5028 14.5507 11.6204 14.4524 11.6568 14.3183C11.748 13.9821 11.8773 13.6615 12.0396 13.3615C12.1167 13.219 12.0141 13.0378 11.8522 13.042C9.54078 13.1022 7.2272 13.0497 4.91965 12.8846L3.40565 12.7763C2.89217 12.7396 2.46865 12.36 2.37612 11.8536C1.96649 9.61162 1.89636 7.32081 2.16809 5.058L2.44057 2.78888C2.51176 2.19611 3.01464 1.75 3.61167 1.75H5.90323C6.34328 1.75 6.7 2.10672 6.7 2.54677C6.7 3.13183 7.17429 3.60612 7.75936 3.60612H16.4722C17.0414 3.60612 17.5262 4.0197 17.6159 4.58178L17.68 4.98322Z" fill="currentColor"/>
<path d="M17 7C15.8954 7 15 7.89543 15 9C15 10.1046 15.8954 11 17 11C18.1046 11 19 10.1046 19 9C19 7.89543 18.1046 7 17 7Z" fill="currentColor"/>
<path d="M13 15.5C13 13.8431 14.3431 12.5 16 12.5H18C19.6569 12.5 21 13.8431 21 15.5C21 16.0523 20.5523 16.5 20 16.5H14C13.4477 16.5 13 16.0523 13 15.5Z" fill="currentColor"/>
</svg>
