<svg width="30" height="24" viewBox="0 0 27 24" fill="none" xmlns="http://www.w3.org/2000/svg">
<path fill-rule="evenodd" clip-rule="evenodd" d="M15.2525 5.53472C14.2731 4.69936 12.7268 4.69936 11.7474 5.53472L6.54265 9.97405C6.41513 10.0828 6.32935 10.2245 6.29748 10.379C5.67408 13.4009 5.62806 16.4945 6.16136 19.53L6.28795 20.2505H9.63646V14.0391C9.63646 13.6249 10.0142 13.2891 10.4802 13.2891H16.5197C16.9857 13.2891 17.3634 13.6249 17.3634 14.0391V20.2505H20.712L20.8385 19.53C21.3718 16.4945 21.3258 13.4009 20.7024 10.379C20.6705 10.2245 20.5848 10.0828 20.4572 9.97406L15.2525 5.53472ZM10.579 4.4524C12.2113 3.06014 14.7886 3.06014 16.4209 4.4524L21.6256 8.89174C22.0088 9.21853 22.2665 9.64422 22.3622 10.1085C23.0198 13.2961 23.0684 16.5594 22.5058 19.7614L22.3025 20.9189C22.2184 21.3976 21.7545 21.7505 21.2095 21.7505H16.5197C16.0537 21.7505 15.6759 21.4147 15.6759 21.0005V14.7891H11.324V21.0005C11.324 21.4147 10.9462 21.7505 10.4802 21.7505H5.79039C5.24535 21.7505 4.78153 21.3976 4.69743 20.9189L4.49407 19.7614C3.93152 16.5594 3.98006 13.2961 4.63765 10.1085C4.73343 9.64422 4.99115 9.21853 5.37429 8.89173L10.579 4.4524Z" fill="currentColor"/>
</svg>
