<svg width="434" height="198" viewBox="0 0 434 198" fill="none" xmlns="http://www.w3.org/2000/svg">
<path d="M378.232 57.0704C379.409 57.7931 379.651 59.2429 378.773 60.3086C377.895 61.3742 376.23 61.6523 375.053 60.9296L378.232 57.0704ZM285.443 0.0704401L378.232 57.0704L375.053 60.9296L282.264 3.92956L285.443 0.0704401Z" fill="white"/>
<path d="M192.41 57.0704C191.234 57.7931 190.992 59.2429 191.87 60.3086C192.748 61.3742 194.413 61.6523 195.589 60.9296L192.41 57.0704ZM285.199 0.0704401L192.41 57.0704L195.589 60.9296L288.379 3.92956L285.199 0.0704401Z" fill="white"/>
<path d="M17.2397 120.768C14.1251 120.768 11.2878 120.363 8.72775 119.552C6.16775 118.699 4.01308 117.589 2.26375 116.224L5.33575 111.104C6.87175 112.384 8.59975 113.429 10.5198 114.24C12.4398 115.051 14.6798 115.456 17.2397 115.456C20.3118 115.456 22.7438 114.816 24.5358 113.536C26.3278 112.256 27.2238 110.528 27.2238 108.352C27.2238 107.115 26.9678 106.027 26.4558 105.088C25.9438 104.107 24.9411 103.168 23.4478 102.272C21.9971 101.333 19.8424 100.331 16.9838 99.264C13.9118 98.0693 11.4584 96.8747 9.62375 95.68C7.78908 94.4427 6.46642 93.056 5.65575 91.52C4.88775 89.9413 4.50375 88.0853 4.50375 85.952C4.50375 83.8187 5.07975 81.8987 6.23175 80.192C7.42642 78.4427 9.15442 77.056 11.4158 76.032C13.7198 74.9653 16.4931 74.432 19.7358 74.432C22.3811 74.432 24.7491 74.7093 26.8398 75.264C28.9731 75.776 31.0424 76.5227 33.0478 77.504L30.8078 82.688C29.3571 81.8347 27.6504 81.1307 25.6878 80.576C23.7678 79.9787 21.7411 79.68 19.6078 79.68C16.7918 79.68 14.5731 80.2347 12.9518 81.344C11.3304 82.4533 10.5198 83.8827 10.5198 85.632C10.5198 86.7413 10.7544 87.7227 11.2238 88.576C11.6931 89.4293 12.6104 90.2613 13.9758 91.072C15.3838 91.8827 17.4744 92.8 20.2478 93.824C23.5758 95.0613 26.1998 96.3627 28.1198 97.728C30.0824 99.0933 31.4691 100.587 32.2798 102.208C33.0904 103.787 33.4958 105.6 33.4958 107.648C33.4958 110.421 32.7918 112.789 31.3838 114.752C30.0184 116.715 28.0984 118.208 25.6238 119.232C23.1918 120.256 20.3971 120.768 17.2397 120.768ZM53.6147 120.768C50.5001 120.768 47.6628 120.363 45.1028 119.552C42.5428 118.699 40.3881 117.589 38.6388 116.224L41.7108 111.104C43.2468 112.384 44.9748 113.429 46.8948 114.24C48.8148 115.051 51.0548 115.456 53.6147 115.456C56.6868 115.456 59.1188 114.816 60.9108 113.536C62.7028 112.256 63.5988 110.528 63.5988 108.352C63.5988 107.115 63.3428 106.027 62.8308 105.088C62.3188 104.107 61.3161 103.168 59.8228 102.272C58.3721 101.333 56.2174 100.331 53.3588 99.264C50.2868 98.0693 47.8334 96.8747 45.9988 95.68C44.1641 94.4427 42.8414 93.056 42.0308 91.52C41.2628 89.9413 40.8788 88.0853 40.8788 85.952C40.8788 83.8187 41.4548 81.8987 42.6068 80.192C43.8014 78.4427 45.5294 77.056 47.7908 76.032C50.0948 74.9653 52.8681 74.432 56.1108 74.432C58.7561 74.432 61.1241 74.7093 63.2148 75.264C65.3481 75.776 67.4174 76.5227 69.4228 77.504L67.1828 82.688C65.7321 81.8347 64.0254 81.1307 62.0628 80.576C60.1428 79.9787 58.1161 79.68 55.9828 79.68C53.1668 79.68 50.9481 80.2347 49.3268 81.344C47.7054 82.4533 46.8948 83.8827 46.8948 85.632C46.8948 86.7413 47.1294 87.7227 47.5988 88.576C48.0681 89.4293 48.9854 90.2613 50.3508 91.072C51.7588 91.8827 53.8494 92.8 56.6228 93.824C59.9508 95.0613 62.5748 96.3627 64.4948 97.728C66.4574 99.0933 67.8441 100.587 68.6548 102.208C69.4654 103.787 69.8708 105.6 69.8708 107.648C69.8708 110.421 69.1668 112.789 67.7588 114.752C66.3934 116.715 64.4734 118.208 61.9988 119.232C59.5668 120.256 56.7721 120.768 53.6147 120.768ZM78.8538 120V75.2H87.3658L99.7818 103.552L112.006 75.2H120.71V120H114.63V82.944L102.662 109.888H96.6458L84.6138 82.944V120H78.8538ZM163.013 120.64L158.021 107.84H137.285L132.293 120.512L127.109 118.4L144.645 75.2H151.301L168.581 118.4L163.013 120.64ZM139.205 102.72H156.037L147.653 81.216L139.205 102.72ZM201.091 120.768L195.523 108.608C194.115 105.579 192.344 103.424 190.211 102.144C188.077 100.864 185.347 100.224 182.019 100.224H181.059V120H174.979V75.328C177.24 75.1147 179.395 74.9653 181.443 74.88C183.533 74.752 185.752 74.688 188.099 74.688C193.56 74.688 197.656 75.7973 200.387 78.016C203.16 80.2347 204.547 83.0933 204.547 86.592C204.547 89.7067 203.608 92.224 201.731 94.144C199.896 96.0213 197.229 97.4293 193.731 98.368C194.883 98.88 195.907 99.4987 196.803 100.224C197.699 100.907 198.552 101.845 199.363 103.04C200.216 104.192 201.069 105.707 201.923 107.584L206.787 118.08L201.091 120.768ZM181.059 95.104H188.099C191.171 95.104 193.667 94.4213 195.587 93.056C197.507 91.6907 198.467 89.728 198.467 87.168C198.467 85.0347 197.571 83.2853 195.779 81.92C193.987 80.512 191.427 79.808 188.099 79.808C186.648 79.808 185.347 79.8293 184.195 79.872C183.043 79.9147 181.997 79.9787 181.059 80.064V95.104ZM221.181 120V80.576H207.421V75.2H241.021V80.576H227.261V120H221.181Z" fill="white"/>
<path d="M249.664 181.768C246.336 181.768 243.37 181.171 240.768 179.976C238.165 178.739 235.946 177.075 234.112 174.984C232.32 172.851 230.933 170.376 229.952 167.56C229.013 164.744 228.544 161.736 228.544 158.536C228.544 154.141 229.376 150.216 231.04 146.76C232.746 143.261 235.178 140.509 238.336 138.504C241.493 136.456 245.269 135.432 249.664 135.432C252.949 135.432 255.893 136.029 258.496 137.224C261.141 138.419 263.381 140.083 265.216 142.216C267.05 144.349 268.437 146.803 269.376 149.576C270.357 152.349 270.848 155.336 270.848 158.536C270.848 161.736 270.357 164.744 269.376 167.56C268.437 170.376 267.05 172.851 265.216 174.984C263.381 177.075 261.162 178.739 258.56 179.976C255.957 181.171 252.992 181.768 249.664 181.768ZM249.664 176.52C252.949 176.52 255.701 175.731 257.92 174.152C260.138 172.573 261.802 170.44 262.912 167.752C264.064 165.021 264.64 161.949 264.64 158.536C264.64 156.232 264.298 154.013 263.616 151.88C262.933 149.747 261.952 147.848 260.672 146.184C259.392 144.477 257.813 143.133 255.936 142.152C254.101 141.171 252.01 140.68 249.664 140.68C246.549 140.68 243.861 141.469 241.6 143.048C239.381 144.627 237.674 146.76 236.48 149.448C235.328 152.136 234.752 155.165 234.752 158.536C234.752 160.84 235.072 163.08 235.712 165.256C236.394 167.389 237.376 169.309 238.656 171.016C239.936 172.723 241.493 174.067 243.328 175.048C245.205 176.029 247.317 176.52 249.664 176.52ZM279.791 181V136.2H306.351V141.448H285.871V155.144H302.959V160.136H285.871V181H279.791ZM314.041 181V136.2H340.601V141.448H320.121V155.144H337.209V160.136H320.121V181H314.041ZM348.291 181V136.2H354.371V181H348.291ZM383.132 181.768C379.25 181.768 375.815 180.851 372.828 179.016C369.842 177.139 367.516 174.493 365.852 171.08C364.188 167.624 363.356 163.528 363.356 158.792C363.356 154.227 364.188 150.195 365.852 146.696C367.559 143.155 369.948 140.403 373.02 138.44C376.135 136.435 379.762 135.432 383.9 135.432C386.034 135.432 387.975 135.645 389.724 136.072C391.474 136.456 393.116 137.011 394.652 137.736L392.796 142.856C391.474 142.216 390.108 141.704 388.7 141.32C387.335 140.936 385.714 140.744 383.836 140.744C381.106 140.744 378.652 141.448 376.476 142.856C374.343 144.264 372.658 146.291 371.42 148.936C370.183 151.581 369.564 154.781 369.564 158.536C369.564 162.12 370.162 165.256 371.356 167.944C372.594 170.632 374.279 172.723 376.412 174.216C378.588 175.709 381.063 176.456 383.836 176.456C385.927 176.456 387.74 176.2 389.276 175.688C390.812 175.176 392.306 174.515 393.756 173.704L395.612 178.76C394.034 179.613 392.22 180.339 390.172 180.936C388.167 181.491 385.82 181.768 383.132 181.768ZM403.916 181V136.2H430.796V141.448H409.996V155.08H427.916V160.2H409.996V175.752H430.796V181H403.916Z" fill="white"/>
</svg>
