<svg width="18" height="16" viewBox="0 0 18 16" fill="none" xmlns="http://www.w3.org/2000/svg">
<path d="M7.90467 1.06543C6.571 1.23138 5.30681 1.68927 4.22935 2.39664C3.15191 3.104 2.29607 4.03793 1.74123 5.11183C1.18639 6.18572 0.950503 7.3648 1.05545 8.53972C1.16039 9.71464 1.60276 10.8473 2.34155 11.8328L1 14.9984L5.49234 14.2878C6.6475 14.7827 7.92219 15.0263 9.20802 14.9977C10.4939 14.9692 11.7528 14.6695 12.8778 14.1241C14.0029 13.5786 14.9607 12.8034 15.6698 11.8646C16.379 10.9258 16.8184 9.85108 16.9509 8.73181" stroke="currentColor" stroke-width="1.5" stroke-linecap="round" stroke-linejoin="round" fill="none"/>
<path d="M13.9231 6.38369C15.6225 6.38369 17.0001 5.17851 17.0001 3.69185C17.0001 2.20518 15.6225 1 13.9231 1C12.2238 1 10.8462 2.20518 10.8462 3.69185C10.8462 5.17851 12.2238 6.38369 13.9231 6.38369Z" fill="currentColor" stroke="currentColor" stroke-width="1.5" stroke-linecap="round" stroke-linejoin="round"/>
</svg>
