<svg width="20" height="18" viewBox="0 0 20 18" fill="none" xmlns="http://www.w3.org/2000/svg">
<path d="M17 5V3C17 1.35 15.65 0 14 0H6C4.35 0 3 1.35 3 3V5C1.35 5 0 6.35 0 8V13C0 14.65 1.35 16 3 16V18H5V16H15V18H17V16C18.65 16 20 14.65 20 13V8C20 6.35 18.65 5 17 5ZM5 3C5 2.45 5.45 2 6 2H14C14.55 2 15 2.45 15 3V5.78C14.39 6.33 14 7.12 14 8V10H6V8C6 7.12 5.61 6.33 5 5.78V3ZM18 13C18 13.55 17.55 14 17 14H3C2.45 14 2 13.55 2 13V8C2 7.45 2.45 7 3 7C3.55 7 4 7.45 4 8V12H16V8C16 7.45 16.45 7 17 7C17.55 7 18 7.45 18 8V13Z" fill="currentColor" stroke-width="0.5"/>
</svg>
