<svg width="24" height="24" viewBox="0 0 24 24" fill="none" xmlns="http://www.w3.org/2000/svg">
<path d="M18.8 9V9.2H19C20.5395 9.2 21.8 10.4605 21.8 12V17C21.8 18.5395 20.5395 19.8 19 19.8H18.8V20V21.8H17.2V20V19.8H17H7H6.8V20V21.8H5.2V20V19.8H5C3.46046 19.8 2.2 18.5395 2.2 17V12C2.2 10.4605 3.46046 9.2 5 9.2H5.2V9V7C5.2 5.46046 6.46046 4.2 8 4.2H16C17.5395 4.2 18.8 5.46046 18.8 7V9ZM17.1339 9.92854L17.2 9.86896V9.78V7C17.2 6.33954 16.6605 5.8 16 5.8H8C7.33954 5.8 6.8 6.33954 6.8 7V9.78V9.86896L6.86607 9.92854C7.43711 10.4434 7.8 11.1807 7.8 12V14V14.2H8H16H16.2V14V12C16.2 11.1807 16.5629 10.4434 17.1339 9.92854ZM19 18.2C19.6605 18.2 20.2 17.6605 20.2 17V12C20.2 11.3395 19.6605 10.8 19 10.8C18.3395 10.8 17.8 11.3395 17.8 12V15.8H6.2V12C6.2 11.3395 5.66046 10.8 5 10.8C4.33954 10.8 3.8 11.3395 3.8 12V17C3.8 17.6605 4.33954 18.2 5 18.2H19Z" fill="currentColor" stroke="none" stroke-width="1.0"/>
</svg>
