<svg width="124" height="48" viewBox="0 0 124 48" fill="none" xmlns="http://www.w3.org/2000/svg">
<path d="M18.4287 18.6131C17.6627 18.9286 17.2975 19.8053 17.6131 20.5713C17.9286 21.3373 18.8053 21.7025 19.5713 21.3869L18.4287 18.6131ZM62.1279 0.613052L18.4287 18.6131L19.5713 21.3869L63.2705 3.38695L62.1279 0.613052Z" fill="var(--text-description)"/>
<path d="M106.271 18.6131C107.037 18.9286 107.402 19.8053 107.086 20.5713C106.771 21.3373 105.894 21.7025 105.128 21.3869L106.271 18.6131ZM62.5713 0.613052L106.271 18.6131L105.128 21.3869L61.4287 3.38695L62.5713 0.613052Z" fill="var(--text-description)"/>
<path d="M5.44 43.048C4.84267 43.048 4.24 42.9893 3.632 42.872C3.03467 42.744 2.48 42.5627 1.968 42.328C1.46667 42.0827 1.06133 41.7893 0.752 41.448C0.442667 41.096 0.288 40.6907 0.288 40.232C0.288 39.6453 0.474667 39.176 0.848 38.824C1.22133 38.472 1.65867 38.3067 2.16 38.328C2.55467 38.3387 2.94933 38.424 3.344 38.584C3.73867 38.7333 4.13867 38.8827 4.544 39.032C4.96 39.1813 5.376 39.256 5.792 39.256C6.208 39.256 6.496 39.2027 6.656 39.096C6.816 38.9893 6.896 38.8453 6.896 38.664C6.896 38.4507 6.784 38.2747 6.56 38.136C6.336 37.9973 6.05333 37.8907 5.712 37.816L4.928 37.624C4.11733 37.432 3.392 37.2187 2.752 36.984C2.112 36.7387 1.60533 36.4187 1.232 36.024C0.869333 35.6187 0.688 35.08 0.688 34.408C0.688 33.672 0.890667 33.0747 1.296 32.616C1.70133 32.1467 2.25067 31.8053 2.944 31.592C3.63733 31.3787 4.41067 31.272 5.264 31.272C6.13867 31.272 6.90667 31.3627 7.568 31.544C8.22933 31.7253 8.74133 31.9867 9.104 32.328C9.47733 32.6693 9.664 33.0853 9.664 33.576C9.664 34.0987 9.52 34.5093 9.232 34.808C8.95467 35.096 8.58133 35.24 8.112 35.24C7.80267 35.24 7.47733 35.1867 7.136 35.08C6.80533 34.9733 6.45333 34.872 6.08 34.776C5.71733 34.6693 5.328 34.616 4.912 34.616C4.53867 34.616 4.256 34.6747 4.064 34.792C3.872 34.8987 3.776 35.0427 3.776 35.224C3.776 35.448 3.904 35.6133 4.16 35.72C4.416 35.8267 4.83733 35.9547 5.424 36.104L6.32 36.312C7.056 36.4933 7.70133 36.712 8.256 36.968C8.81067 37.224 9.24267 37.56 9.552 37.976C9.86133 38.392 10.016 38.936 10.016 39.608C10.016 40.4187 9.824 41.08 9.44 41.592C9.056 42.0933 8.52267 42.4613 7.84 42.696C7.15733 42.9307 6.35733 43.048 5.44 43.048ZM15.5806 43.048C14.9833 43.048 14.3806 42.9893 13.7726 42.872C13.1753 42.744 12.6206 42.5627 12.1086 42.328C11.6073 42.0827 11.202 41.7893 10.8926 41.448C10.5833 41.096 10.4286 40.6907 10.4286 40.232C10.4286 39.6453 10.6153 39.176 10.9886 38.824C11.362 38.472 11.7993 38.3067 12.3006 38.328C12.6953 38.3387 13.09 38.424 13.4846 38.584C13.8793 38.7333 14.2793 38.8827 14.6846 39.032C15.1006 39.1813 15.5166 39.256 15.9326 39.256C16.3486 39.256 16.6366 39.2027 16.7966 39.096C16.9566 38.9893 17.0366 38.8453 17.0366 38.664C17.0366 38.4507 16.9246 38.2747 16.7006 38.136C16.4766 37.9973 16.194 37.8907 15.8526 37.816L15.0686 37.624C14.258 37.432 13.5326 37.2187 12.8926 36.984C12.2526 36.7387 11.746 36.4187 11.3726 36.024C11.01 35.6187 10.8286 35.08 10.8286 34.408C10.8286 33.672 11.0313 33.0747 11.4366 32.616C11.842 32.1467 12.3913 31.8053 13.0846 31.592C13.778 31.3787 14.5513 31.272 15.4046 31.272C16.2793 31.272 17.0473 31.3627 17.7086 31.544C18.37 31.7253 18.882 31.9867 19.2446 32.328C19.618 32.6693 19.8046 33.0853 19.8046 33.576C19.8046 34.0987 19.6606 34.5093 19.3726 34.808C19.0953 35.096 18.722 35.24 18.2526 35.24C17.9433 35.24 17.618 35.1867 17.2766 35.08C16.946 34.9733 16.594 34.872 16.2206 34.776C15.858 34.6693 15.4686 34.616 15.0526 34.616C14.6793 34.616 14.3966 34.6747 14.2046 34.792C14.0126 34.8987 13.9166 35.0427 13.9166 35.224C13.9166 35.448 14.0446 35.6133 14.3006 35.72C14.5566 35.8267 14.978 35.9547 15.5646 36.104L16.4606 36.312C17.1966 36.4933 17.842 36.712 18.3966 36.968C18.9513 37.224 19.3833 37.56 19.6926 37.976C20.002 38.392 20.1566 38.936 20.1566 39.608C20.1566 40.4187 19.9646 41.08 19.5806 41.592C19.1966 42.0933 18.6633 42.4613 17.9806 42.696C17.298 42.9307 16.498 43.048 15.5806 43.048ZM22.5815 43C22.0268 43 21.6162 42.8347 21.3495 42.504C21.0828 42.1733 20.9495 41.7307 20.9495 41.176V33.72C20.9495 32.9093 21.1682 32.312 21.6055 31.928C22.0535 31.544 22.5868 31.352 23.2055 31.352C23.7922 31.352 24.2882 31.544 24.6935 31.928C25.1095 32.312 25.4135 32.92 25.6055 33.752L26.8535 39.176H27.2695L28.5175 33.752C28.7095 32.92 29.0135 32.312 29.4295 31.928C29.8562 31.544 30.3628 31.352 30.9495 31.352C31.5682 31.352 32.0962 31.544 32.5335 31.928C32.9815 32.312 33.2055 32.9093 33.2055 33.72V41.176C33.2055 41.7307 33.0668 42.1733 32.7895 42.504C32.5228 42.8347 32.1122 43 31.5575 43C31.0242 43 30.6135 42.8347 30.3255 42.504C30.0375 42.1733 29.8935 41.7307 29.8935 41.176V36.872C29.8935 36.7653 29.8775 36.6693 29.8455 36.584C29.8242 36.488 29.7548 36.44 29.6375 36.44C29.5415 36.44 29.4722 36.488 29.4295 36.584C29.3868 36.6693 29.3548 36.7653 29.3335 36.872L28.7255 40.904C28.6508 41.3413 28.5602 41.72 28.4535 42.04C28.3575 42.3493 28.2028 42.5893 27.9895 42.76C27.7762 42.92 27.4668 43 27.0615 43C26.6668 43 26.3575 42.92 26.1335 42.76C25.9202 42.5893 25.7602 42.3493 25.6535 42.04C25.5575 41.72 25.4775 41.3413 25.4135 40.904L24.7895 36.872C24.7788 36.7653 24.7522 36.6693 24.7095 36.584C24.6668 36.488 24.5922 36.44 24.4855 36.44C24.3788 36.44 24.3095 36.488 24.2775 36.584C24.2455 36.6693 24.2295 36.7653 24.2295 36.872V41.176C24.2295 41.7307 24.0855 42.1733 23.7975 42.504C23.5202 42.8347 23.1148 43 22.5815 43ZM35.5268 43C34.8121 42.8933 34.3481 42.568 34.1348 42.024C33.9214 41.4693 33.9641 40.7707 34.2628 39.928L36.3748 33.928C36.5668 33.3733 36.7854 32.8987 37.0308 32.504C37.2868 32.1093 37.6014 31.8053 37.9748 31.592C38.3588 31.3787 38.8334 31.272 39.3988 31.272C40.2521 31.272 40.8921 31.5067 41.3188 31.976C41.7561 32.4453 42.1188 33.096 42.4068 33.928L44.5028 39.928C44.8014 40.7707 44.8548 41.4693 44.6628 42.024C44.4814 42.568 44.0281 42.8933 43.3028 43C42.7161 43.0747 42.2041 43.0053 41.7668 42.792C41.3401 42.5787 41.0841 42.232 40.9988 41.752C40.9348 41.432 40.9241 41.1653 40.9668 40.952C41.0201 40.7387 41.0681 40.568 41.1108 40.44C41.1428 40.3333 41.1428 40.232 41.1108 40.136C41.0894 40.0293 41.0094 39.976 40.8708 39.976H37.8948C37.7561 39.976 37.6708 40.0293 37.6388 40.136C37.6174 40.232 37.6281 40.3333 37.6708 40.44C37.7134 40.568 37.7561 40.7387 37.7988 40.952C37.8414 41.1653 37.8361 41.432 37.7828 41.752C37.6974 42.232 37.4468 42.5787 37.0308 42.792C36.6148 43.0053 36.1134 43.0747 35.5268 43ZM40.5668 37.736L39.7348 35.128C39.7134 35.0213 39.6761 34.9413 39.6228 34.888C39.5801 34.824 39.5054 34.792 39.3988 34.792C39.2921 34.792 39.2121 34.824 39.1588 34.888C39.1161 34.9413 39.0788 35.0213 39.0468 35.128L38.2308 37.736H40.5668ZM53.2103 43C52.6769 43 52.2556 42.84 51.9463 42.52C51.6369 42.1893 51.4716 41.7627 51.4503 41.24C51.4076 40.3333 51.1783 39.6933 50.7623 39.32C50.3569 38.936 49.8129 38.744 49.1302 38.744H48.8103V41.304C48.8103 41.8587 48.6609 42.28 48.3623 42.568C48.0636 42.856 47.6689 43 47.1783 43C46.6556 43 46.2449 42.856 45.9463 42.568C45.6476 42.28 45.4983 41.8587 45.4983 41.304V39.048C45.4983 37.9173 45.6636 37.0587 45.9943 36.472C46.3356 35.8853 46.7676 35.464 47.2903 35.208L47.2103 34.904H46.9543C46.4636 34.904 46.0743 34.7493 45.7863 34.44C45.5089 34.12 45.3596 33.688 45.3383 33.144C45.3276 32.6107 45.4716 32.1787 45.7703 31.848C46.0689 31.5173 46.4636 31.352 46.9543 31.352H51.0343C52.1756 31.352 53.0983 31.6293 53.8023 32.184C54.5063 32.7387 54.8583 33.624 54.8583 34.84C54.8583 35.4693 54.7516 35.9973 54.5383 36.424C54.3249 36.84 54.0529 37.16 53.7222 37.384C53.3916 37.608 53.0449 37.7413 52.6823 37.784V37.992C53.3436 38.152 53.8876 38.504 54.3142 39.048C54.7516 39.592 54.9703 40.3227 54.9703 41.24C54.9703 41.8267 54.8103 42.2693 54.4903 42.568C54.1809 42.856 53.7543 43 53.2103 43ZM48.7303 36.296C48.7303 36.5307 48.7729 36.6853 48.8583 36.76C48.9436 36.8347 49.1036 36.872 49.3383 36.872H50.8423C51.2903 36.872 51.6156 36.7707 51.8183 36.568C52.0209 36.3653 52.1223 36.0827 52.1223 35.72C52.1223 35.3467 52.0209 35.0587 51.8183 34.856C51.6156 34.6533 51.2903 34.552 50.8423 34.552H49.3383C49.1036 34.552 48.9436 34.584 48.8583 34.648C48.7729 34.712 48.7303 34.8667 48.7303 35.112V36.296ZM57.1864 34.904C56.653 34.904 56.2157 34.7493 55.8744 34.44C55.5437 34.1307 55.3784 33.704 55.3784 33.16C55.3784 32.6267 55.5277 32.2 55.8264 31.88C56.1357 31.5493 56.589 31.384 57.1864 31.384H64.0824C64.6797 31.384 65.1277 31.5493 65.4264 31.88C65.7357 32.2 65.8904 32.6267 65.8904 33.16C65.8904 33.704 65.7197 34.1307 65.3784 34.44C65.0477 34.7493 64.6157 34.904 64.0824 34.904C63.7197 34.904 63.4264 34.8667 63.2024 34.792C62.989 34.7067 62.813 34.6107 62.6744 34.504C62.5357 34.3867 62.4024 34.2907 62.2744 34.216C62.1464 34.1307 61.9864 34.088 61.7944 34.088L61.6504 34.376C61.693 34.472 61.7677 34.6107 61.8744 34.792C61.981 34.9627 62.0824 35.2133 62.1784 35.544C62.2744 35.864 62.3224 36.3013 62.3224 36.856V41.48C62.3224 41.9173 62.157 42.28 61.8264 42.568C61.5064 42.856 61.1117 43 60.6424 43C60.1624 43 59.757 42.856 59.4264 42.568C59.1064 42.28 58.9464 41.9173 58.9464 41.48V36.856C58.9464 36.3013 58.9944 35.864 59.0904 35.544C59.1864 35.2133 59.2877 34.9627 59.3944 34.792C59.5117 34.6107 59.5917 34.472 59.6344 34.376L59.4744 34.088C59.2824 34.088 59.1224 34.1307 58.9944 34.216C58.8664 34.2907 58.733 34.3867 58.5944 34.504C58.4557 34.6107 58.2797 34.7067 58.0664 34.792C57.853 34.8667 57.5597 34.904 57.1864 34.904ZM74.5863 43.048C73.4449 43.048 72.4796 42.7973 71.6903 42.296C70.9009 41.7947 70.3036 41.1013 69.8983 40.216C69.4929 39.3307 69.2903 38.312 69.2903 37.16C69.2903 36.0187 69.4929 35.0053 69.8983 34.12C70.3036 33.224 70.9009 32.5253 71.6903 32.024C72.4796 31.512 73.4449 31.256 74.5863 31.256C75.7276 31.256 76.6876 31.512 77.4663 32.024C78.2556 32.5253 78.8529 33.224 79.2583 34.12C79.6636 35.0053 79.8663 36.0187 79.8663 37.16C79.8663 38.312 79.6636 39.3307 79.2583 40.216C78.8529 41.1013 78.2556 41.7947 77.4663 42.296C76.6876 42.7973 75.7276 43.048 74.5863 43.048ZM71.3063 36.904C71.3063 37.2347 71.3863 37.5493 71.5463 37.848C71.7063 38.136 72.0209 38.3707 72.4903 38.552C72.9596 38.7227 73.6583 38.808 74.5863 38.808C75.5143 38.808 76.2076 38.7227 76.6663 38.552C77.1356 38.3707 77.4503 38.136 77.6103 37.848C77.7703 37.5493 77.8503 37.2347 77.8503 36.904C77.8503 36.5627 77.7703 36.2587 77.6103 35.992C77.4503 35.7147 77.1356 35.496 76.6663 35.336C76.2076 35.1653 75.5143 35.08 74.5863 35.08C73.6583 35.08 72.9596 35.1653 72.4903 35.336C72.0209 35.496 71.7063 35.7147 71.5463 35.992C71.3863 36.2587 71.3063 36.5627 71.3063 36.904ZM82.4111 43C81.8885 43 81.4725 42.856 81.1631 42.568C80.8645 42.28 80.7151 41.8587 80.7151 41.304V39.048C80.7151 37.9173 80.8858 37.0587 81.2271 36.472C81.5685 35.8853 82.0005 35.464 82.5231 35.208L82.4431 34.904H82.1711C81.6805 34.904 81.2911 34.7493 81.0031 34.44C80.7258 34.12 80.5818 33.688 80.5711 33.144C80.5605 32.6107 80.6991 32.184 80.9871 31.864C81.2858 31.544 81.6805 31.384 82.1711 31.384H87.7711C88.9125 31.384 89.4831 31.9173 89.4831 32.984C89.4831 33.464 89.3445 33.848 89.0671 34.136C88.7898 34.424 88.3578 34.568 87.7711 34.568H84.6511C84.2565 34.568 84.0591 34.7973 84.0591 35.256V36.408C84.5605 36.2693 85.0831 36.1093 85.6271 35.928C86.1711 35.7467 86.6938 35.656 87.1951 35.656C87.7285 35.656 88.1391 35.7893 88.4271 36.056C88.7258 36.312 88.8751 36.7067 88.8751 37.24C88.8751 37.7627 88.7258 38.1573 88.4271 38.424C88.1391 38.68 87.7285 38.8133 87.1951 38.824C86.6938 38.8347 86.1658 38.7547 85.6111 38.584C85.0671 38.4027 84.5445 38.2427 84.0431 38.104L84.0271 41.304C84.0271 41.8587 83.8778 42.28 83.5791 42.568C83.2911 42.856 82.9018 43 82.4111 43ZM91.8955 43C91.3728 43 90.9568 42.856 90.6475 42.568C90.3488 42.28 90.1995 41.8587 90.1995 41.304V39.048C90.1995 37.9173 90.3702 37.0587 90.7115 36.472C91.0528 35.8853 91.4848 35.464 92.0075 35.208L91.9275 34.904H91.6555C91.1648 34.904 90.7755 34.7493 90.4875 34.44C90.2102 34.12 90.0662 33.688 90.0555 33.144C90.0448 32.6107 90.1835 32.184 90.4715 31.864C90.7702 31.544 91.1648 31.384 91.6555 31.384H97.2555C98.3968 31.384 98.9675 31.9173 98.9675 32.984C98.9675 33.464 98.8288 33.848 98.5515 34.136C98.2742 34.424 97.8422 34.568 97.2555 34.568H94.1355C93.7408 34.568 93.5435 34.7973 93.5435 35.256V36.408C94.0448 36.2693 94.5675 36.1093 95.1115 35.928C95.6555 35.7467 96.1782 35.656 96.6795 35.656C97.2128 35.656 97.6235 35.7893 97.9115 36.056C98.2102 36.312 98.3595 36.7067 98.3595 37.24C98.3595 37.7627 98.2102 38.1573 97.9115 38.424C97.6235 38.68 97.2128 38.8133 96.6795 38.824C96.1782 38.8347 95.6502 38.7547 95.0955 38.584C94.5515 38.4027 94.0288 38.2427 93.5275 38.104L93.5115 41.304C93.5115 41.8587 93.3622 42.28 93.0635 42.568C92.7755 42.856 92.3862 43 91.8955 43ZM101.348 43.032C100.857 43.032 100.457 42.8827 100.148 42.584C99.8385 42.2853 99.6839 41.9067 99.6839 41.448V32.984C99.6839 32.5147 99.8332 32.12 100.132 31.8C100.441 31.48 100.847 31.32 101.348 31.32C101.881 31.32 102.297 31.48 102.596 31.8C102.905 32.1093 103.06 32.4933 103.06 32.952V41.448C103.06 41.9067 102.895 42.2853 102.564 42.584C102.244 42.8827 101.839 43.032 101.348 43.032ZM109.594 43.032C108.549 43.032 107.605 42.8187 106.762 42.392C105.93 41.9547 105.274 41.3093 104.794 40.456C104.314 39.6027 104.074 38.552 104.074 37.304C104.074 36.056 104.314 34.9787 104.794 34.072C105.285 33.1653 105.951 32.472 106.794 31.992C107.647 31.5013 108.618 31.256 109.706 31.256C110.965 31.256 111.93 31.432 112.602 31.784C113.274 32.136 113.61 32.6587 113.61 33.352C113.61 33.8853 113.466 34.328 113.178 34.68C112.89 35.0213 112.495 35.192 111.994 35.192C111.567 35.192 111.151 35.1387 110.746 35.032C110.351 34.9147 109.887 34.856 109.354 34.856C108.671 34.856 108.133 35.0533 107.738 35.448C107.343 35.8427 107.146 36.36 107.146 37C107.146 37.6293 107.343 38.1573 107.738 38.584C108.133 39 108.671 39.208 109.354 39.208C109.717 39.208 110.047 39.1813 110.346 39.128C110.655 39.064 110.954 39 111.242 38.936C111.541 38.872 111.861 38.84 112.202 38.84C112.767 38.84 113.183 39.0267 113.45 39.4C113.717 39.7627 113.85 40.216 113.85 40.76C113.85 41.304 113.653 41.7467 113.258 42.088C112.863 42.4187 112.341 42.6587 111.69 42.808C111.05 42.9573 110.351 43.032 109.594 43.032ZM118.588 42.968C118.065 42.968 117.564 42.92 117.084 42.824C116.615 42.728 116.199 42.5467 115.836 42.28C115.484 42.0027 115.201 41.608 114.988 41.096C114.785 40.5733 114.684 39.8907 114.684 39.048C114.684 38.2907 114.785 37.64 114.988 37.096C115.191 36.552 115.431 36.12 115.708 35.8C115.996 35.48 116.257 35.2827 116.492 35.208L116.412 34.904H116.14C115.649 34.904 115.26 34.7493 114.972 34.44C114.695 34.12 114.551 33.688 114.54 33.144C114.529 32.6107 114.668 32.184 114.956 31.864C115.255 31.544 115.649 31.384 116.14 31.384H121.884C123.025 31.384 123.596 31.9173 123.596 32.984C123.596 33.464 123.457 33.848 123.18 34.136C122.903 34.424 122.471 34.568 121.884 34.568H118.572C118.177 34.568 117.98 34.7973 117.98 35.256V36.456C118.513 36.3387 119.068 36.2 119.644 36.04C120.231 35.88 120.785 35.8 121.308 35.8C121.809 35.8 122.183 35.912 122.428 36.136C122.684 36.3493 122.812 36.6427 122.812 37.016C122.812 37.4 122.684 37.704 122.428 37.928C122.183 38.1413 121.809 38.2533 121.308 38.264C120.785 38.2747 120.231 38.2 119.644 38.04C119.057 37.88 118.497 37.7413 117.964 37.624V39.72C117.964 39.9227 118.017 40.0667 118.124 40.152C118.241 40.2267 118.423 40.1947 118.668 40.056C119.201 39.7467 119.724 39.5013 120.236 39.32C120.748 39.128 121.249 39.032 121.74 39.032C122.433 39.032 122.956 39.2133 123.308 39.576C123.671 39.9387 123.852 40.4133 123.852 41C123.852 41.6293 123.66 42.1147 123.276 42.456C122.903 42.7973 122.295 42.968 121.452 42.968H118.588Z" fill="#4876EF"/>
</svg>
