<svg width="14" height="18" viewBox="0 0 12 16" fill="none" xmlns="http://www.w3.org/2000/svg">
<path d="M8.8125 8.75C8.8125 8.43934 8.56066 8.1875 8.25 8.1875H3.75C3.43934 8.1875 3.1875 8.43934 3.1875 8.75C3.1875 9.06066 3.43934 9.3125 3.75 9.3125H8.25C8.56066 9.3125 8.8125 9.06066 8.8125 8.75Z" fill="#FF5B57"/>
<path d="M8.8125 11.75C8.8125 11.4393 8.56066 11.1875 8.25 11.1875H3.75C3.43934 11.1875 3.1875 11.4393 3.1875 11.75C3.1875 12.0607 3.43934 12.3125 3.75 12.3125H8.25C8.56066 12.3125 8.8125 12.0607 8.8125 11.75Z" fill="#FF5B57"/>
<path fill-rule="evenodd" clip-rule="evenodd" d="M2.25 0.6875C1.11091 0.6875 0.1875 1.61091 0.1875 2.75V13.25C0.1875 14.3891 1.11091 15.3125 2.25 15.3125H9.75C10.8891 15.3125 11.8125 14.3891 11.8125 13.25V4.97574C11.8125 4.69016 11.7194 4.41238 11.5472 4.18452L9.29886 1.20878C9.05081 0.880473 8.66314 0.6875 8.25166 0.6875H2.25ZM1.3125 2.75C1.3125 2.23223 1.73223 1.8125 2.25 1.8125H7.6875V5.11028C7.6875 5.42094 7.93934 5.67278 8.25 5.67278H10.6875V13.25C10.6875 13.7678 10.2678 14.1875 9.75 14.1875H2.25C1.73223 14.1875 1.3125 13.7678 1.3125 13.25V2.75Z" fill="#FF5B57"/>
</svg>
