<svg width="19" height="18" viewBox="0 0 19 18" fill="none" xmlns="http://www.w3.org/2000/svg">
<path d="M9.44696 9.38293C9.26834 9.38293 9.12354 9.25152 9.12354 9.08942C9.12354 8.92731 9.26834 8.7959 9.44696 8.7959" stroke="#F3B600" stroke-width="1.2" stroke-linecap="round" stroke-linejoin="round"/>
<path d="M9.44727 9.38293C9.62589 9.38293 9.77069 9.25152 9.77069 9.08942C9.77069 8.92731 9.62589 8.7959 9.44727 8.7959" stroke="#F3B600" stroke-width="1.2" stroke-linecap="round" stroke-linejoin="round"/>
<path d="M5.88934 9.38293C5.71072 9.38293 5.56592 9.25152 5.56592 9.08942C5.56592 8.92731 5.71072 8.7959 5.88934 8.7959" stroke="#F3B600" stroke-width="1.2" stroke-linecap="round" stroke-linejoin="round"/>
<path d="M5.8894 9.38293C6.06803 9.38293 6.21283 9.25152 6.21283 9.08942C6.21283 8.92731 6.06803 8.7959 5.8894 8.7959" stroke="#F3B600" stroke-width="1.2" stroke-linecap="round" stroke-linejoin="round"/>
<path d="M13.0046 9.38293C12.826 9.38293 12.6812 9.25152 12.6812 9.08942C12.6812 8.92731 12.826 8.7959 13.0046 8.7959" stroke="#F3B600" stroke-width="1.2" stroke-linecap="round" stroke-linejoin="round"/>
<path d="M13.0044 9.38293C13.183 9.38293 13.3279 9.25152 13.3279 9.08942C13.3279 8.92731 13.183 8.7959 13.0044 8.7959" stroke="#F3B600" stroke-width="1.2" stroke-linecap="round" stroke-linejoin="round"/>
<path d="M9.44196 1.5293C7.93503 1.52972 6.45643 1.90109 5.16366 2.60383C3.8709 3.30658 2.81238 4.31439 2.10084 5.51992C1.3893 6.72545 1.0514 8.08356 1.12312 9.44959C1.19484 10.8156 1.67349 12.1384 2.50811 13.2771L1.11108 16.6503L5.78919 15.8826C6.91567 16.3821 8.15185 16.6445 9.40562 16.6502C10.6594 16.6558 11.8984 16.4046 13.0303 15.9151C14.1621 15.4257 15.1577 14.7107 15.9426 13.8235C16.7276 12.9364 17.282 11.8998 17.564 10.7911C17.8462 9.68247 17.849 8.53032 17.5722 7.42057C17.2953 6.31081 16.7461 5.27206 15.9654 4.38177C15.1846 3.49146 14.1925 2.77258 13.063 2.27868C11.9335 1.78479 10.6957 1.52863 9.44196 1.5293Z" stroke="#F3B600" stroke-width="1.2" stroke-linecap="round" stroke-linejoin="round"/>
</svg>
