<svg width="15" height="15" viewBox="0 0 15 15" fill="none" xmlns="http://www.w3.org/2000/svg">
<path d="M2 2.5C1.73478 2.5 1.48043 2.60536 1.29289 2.79289C1.10536 2.98043 1 3.23478 1 3.5V13C1 13.2652 1.10536 13.5196 1.29289 13.7071C1.48043 13.8946 1.73478 14 2 14H13C13.2652 14 13.5196 13.8946 13.7071 13.7071C13.8946 13.5196 14 13.2652 14 13V3.5C14 3.23478 13.8946 2.98043 13.7071 2.79289C13.5196 2.60536 13.2652 2.5 13 2.5H11" stroke="black" stroke-linecap="round" stroke-linejoin="round"/>
<path d="M1 6H14" stroke="black" stroke-linecap="round" stroke-linejoin="round"/>
<path d="M4 1V4" stroke="black" stroke-linecap="round" stroke-linejoin="round"/>
<path d="M11 1V4" stroke="black" stroke-linecap="round" stroke-linejoin="round"/>
<path d="M4 2.5H9" stroke="black" stroke-linecap="round" stroke-linejoin="round"/>
</svg>
