<svg width="30" height="30" viewBox="0 0 27 27" fill="none" xmlns="http://www.w3.org/2000/svg">
<path fill-rule="evenodd" clip-rule="evenodd" d="M9.28129 14.625C9.28129 12.295 11.1701 10.4062 13.5 10.4062C15.83 10.4062 17.7188 12.295 17.7188 14.625C17.7188 16.955 15.83 18.8438 13.5 18.8438C11.1701 18.8438 9.28129 16.955 9.28129 14.625ZM13.5 12.0938C12.1021 12.0938 10.9688 13.227 10.9688 14.625C10.9688 16.023 12.1021 17.1562 13.5 17.1562C14.898 17.1562 16.0313 16.023 16.0313 14.625C16.0313 13.227 14.898 12.0938 13.5 12.0938Z" fill="currentColor"/>
<path fill-rule="evenodd" clip-rule="evenodd" d="M11.9432 6.46875C10.7674 6.46875 9.81418 7.42194 9.81418 8.59775C9.81418 9.34696 9.23906 9.97069 8.49231 10.0313L5.98401 10.235C5.49152 10.275 5.08649 10.6392 4.99456 11.1247C4.48973 13.791 4.45208 16.5247 4.88331 19.2038L4.99272 19.8835C5.09604 20.5255 5.62438 21.0139 6.27244 21.0665L8.45756 21.244C11.8137 21.5165 15.1864 21.5165 18.5425 21.244L20.7276 21.0665C21.3757 21.0139 21.904 20.5255 22.0074 19.8835L22.1168 19.2038C22.548 16.5247 22.5104 13.791 22.0055 11.1247C21.9136 10.6392 21.5086 10.275 21.0161 10.235L18.5078 10.0313C17.761 9.97069 17.1859 9.34696 17.1859 8.59775C17.1859 7.42194 16.2327 6.46875 15.0569 6.46875H11.9432ZM8.13352 8.36742C8.25261 6.36687 9.91273 4.78125 11.9432 4.78125H15.0569C17.0873 4.78125 18.7475 6.36687 18.8666 8.36742L21.1527 8.55308C22.4024 8.65458 23.4303 9.57877 23.6636 10.8108C24.2048 13.6691 24.2451 16.5998 23.7828 19.472L23.6734 20.1517C23.4466 21.5608 22.2868 22.6329 20.8642 22.7485L18.6791 22.9259C15.2321 23.2059 11.768 23.2059 8.32097 22.9259L6.13585 22.7485C4.71326 22.6329 3.55348 21.5609 3.32666 20.1517L3.21726 19.472C2.75496 16.5998 2.79531 13.6691 3.33652 10.8108C3.56979 9.57877 4.59763 8.65458 5.84741 8.55308L8.13352 8.36742Z" fill="currentColor"/>
</svg>
