<svg width="18" height="18" viewBox="0 0 18 18" fill="none" xmlns="http://www.w3.org/2000/svg">
<path fill-rule="evenodd" clip-rule="evenodd" d="M11.3849 12.446C8.73463 14.5687 4.8552 14.4016 2.39842 11.9448C-0.237623 9.30881 -0.237623 5.03494 2.39842 2.3989C5.03445 -0.237135 9.30832 -0.237134 11.9444 2.3989C14.4011 4.85569 14.5682 8.73511 12.4456 11.3854L17.6012 16.541C17.8941 16.8339 17.8941 17.3088 17.6012 17.6017C17.3083 17.8946 16.8334 17.8946 16.5405 17.6017L11.3849 12.446ZM3.45908 10.8842C1.40882 8.83393 1.40882 5.50982 3.45908 3.45956C5.50933 1.40931 8.83344 1.40931 10.8837 3.45956C12.9324 5.50831 12.9339 8.82905 10.8882 10.8797C10.8867 10.8812 10.8852 10.8827 10.8837 10.8842C10.8822 10.8857 10.8807 10.8872 10.8792 10.8887C8.82857 12.9344 5.50783 12.9329 3.45908 10.8842Z" fill="#A0A0A0"/>
</svg>
