<svg width="38" height="38" viewBox="0 0 38 38" fill="none" xmlns="http://www.w3.org/2000/svg">
<circle cx="19" cy="19" r="19" fill="white"/>
<path fill-rule="evenodd" clip-rule="evenodd" d="M22.3849 22.446C19.7346 24.5687 15.8552 24.4016 13.3984 21.9448C10.7624 19.3088 10.7624 15.0349 13.3984 12.3989C16.0345 9.76287 20.3083 9.76287 22.9444 12.3989C25.4011 14.8557 25.5682 18.7351 23.4456 21.3854L28.6012 26.541C28.8941 26.8339 28.8941 27.3088 28.6012 27.6017C28.3083 27.8946 27.8334 27.8946 27.5405 27.6017L22.3849 22.446ZM14.4591 20.8842C12.4088 18.8339 12.4088 15.5098 14.4591 13.4596C16.5093 11.4093 19.8334 11.4093 21.8837 13.4596C23.9324 15.5083 23.9339 18.8291 21.8882 20.8797C21.8867 20.8812 21.8852 20.8827 21.8837 20.8842C21.8822 20.8857 21.8807 20.8872 21.8792 20.8887C19.8286 22.9344 16.5078 22.9329 14.4591 20.8842Z" fill="#A0A0A0"/>
</svg>
