<svg width="20" height="20" viewBox="0 0 20 20" fill="none" xmlns="http://www.w3.org/2000/svg">
<g clip-path="url(#clip0_250_1030)">
<path d="M18.3686 9.69501L9.96916 18.165C9.64326 18.497 9.25443 18.7609 8.82542 18.9409C8.3964 19.121 7.93579 19.2137 7.47052 19.2137C7.00523 19.2137 6.54463 19.121 6.1156 18.9409C5.68659 18.7609 5.29776 18.497 4.97187 18.165L2.4591 15.6099C1.8013 14.9417 1.43262 14.0418 1.43262 13.1042C1.43262 12.1666 1.8013 11.2666 2.4591 10.5985L11.4091 1.62029C11.6715 1.35566 11.9838 1.14563 12.3278 1.00229C12.6719 0.858953 13.0409 0.785156 13.4136 0.785156C13.7863 0.785156 14.1554 0.858953 14.4994 1.00229C14.8434 1.14563 15.1557 1.35566 15.4181 1.62029L16.4204 2.62258C16.6851 2.88503 16.8951 3.19731 17.0384 3.54135C17.1819 3.88539 17.2556 4.25442 17.2556 4.62714C17.2556 4.99985 17.1819 5.36888 17.0384 5.71292C16.8951 6.05698 16.6851 6.36924 16.4204 6.63169L8.48692 14.5934C8.35567 14.7259 8.19955 14.8309 8.02752 14.9024C7.8555 14.9741 7.67099 15.011 7.48463 15.011C7.29827 15.011 7.11376 14.9741 6.94173 14.9024C6.76972 14.8309 6.61357 14.7259 6.48235 14.5934L5.98826 14.0853C5.85595 13.9541 5.75093 13.7979 5.67926 13.6259C5.6076 13.4539 5.5707 13.2694 5.5707 13.083C5.5707 12.8967 5.6076 12.7121 5.67926 12.5401C5.75093 12.3681 5.85595 12.2119 5.98826 12.0807L11.3102 6.80109" stroke="#A0A0A0" stroke-width="1.5" stroke-linecap="round" stroke-linejoin="round"/>
</g>
<defs>
<clipPath id="clip0_250_1030">
<rect width="20" height="20" fill="white"/>
</clipPath>
</defs>
</svg>
